<mxfile host="app.diagrams.net" agent="Mozilla/5.0 (Windows NT 10.0; Win64; x64) AppleWebKit/537.36 (KHTML, like Gecko) Chrome/133.0.0.0 Safari/537.36" version="26.0.16">
  <diagram name="第 1 页" id="Ahd-Ehgqp-aZsXqGatdi">
    <mxGraphModel dx="2261" dy="738" grid="1" gridSize="10" guides="1" tooltips="1" connect="1" arrows="1" fold="1" page="1" pageScale="1" pageWidth="827" pageHeight="1169" math="0" shadow="0">
      <root>
        <mxCell id="0" />
        <mxCell id="1" parent="0" />
        <mxCell id="XfbloPg4ATD7ratiGsCX-1" value="" style="rounded=1;whiteSpace=wrap;html=1;dashed=1;fillColor=#fff2cc;strokeColor=#d6b656;" parent="1" vertex="1">
          <mxGeometry x="-110" y="120" width="240" height="350" as="geometry" />
        </mxCell>
        <mxCell id="XfbloPg4ATD7ratiGsCX-2" style="edgeStyle=orthogonalEdgeStyle;rounded=0;orthogonalLoop=1;jettySize=auto;html=1;exitX=0.5;exitY=0;exitDx=0;exitDy=0;entryX=0.5;entryY=1;entryDx=0;entryDy=0;endArrow=none;endFill=0;" parent="1" source="XfbloPg4ATD7ratiGsCX-3" target="XfbloPg4ATD7ratiGsCX-5" edge="1">
          <mxGeometry relative="1" as="geometry" />
        </mxCell>
        <mxCell id="XfbloPg4ATD7ratiGsCX-3" value="&lt;b&gt;&lt;font face=&quot;Tahoma&quot;&gt;Feedforward&lt;br&gt;down-project&lt;/font&gt;&lt;/b&gt;" style="rounded=1;whiteSpace=wrap;html=1;fillColor=#d5e8d4;strokeColor=#82b366;" parent="1" vertex="1">
          <mxGeometry x="-50" y="352" width="120" height="50" as="geometry" />
        </mxCell>
        <mxCell id="XfbloPg4ATD7ratiGsCX-4" style="edgeStyle=orthogonalEdgeStyle;rounded=0;orthogonalLoop=1;jettySize=auto;html=1;exitX=0.5;exitY=0;exitDx=0;exitDy=0;entryX=0.5;entryY=1;entryDx=0;entryDy=0;endArrow=none;endFill=0;" parent="1" source="XfbloPg4ATD7ratiGsCX-5" target="XfbloPg4ATD7ratiGsCX-9" edge="1">
          <mxGeometry relative="1" as="geometry" />
        </mxCell>
        <mxCell id="XfbloPg4ATD7ratiGsCX-5" value="" style="rounded=0;whiteSpace=wrap;html=1;" parent="1" vertex="1">
          <mxGeometry x="-33" y="320" width="83" height="20" as="geometry" />
        </mxCell>
        <mxCell id="XfbloPg4ATD7ratiGsCX-6" value="" style="ellipse;whiteSpace=wrap;html=1;aspect=fixed;" parent="1" vertex="1">
          <mxGeometry x="-22" y="320" width="20" height="20" as="geometry" />
        </mxCell>
        <mxCell id="XfbloPg4ATD7ratiGsCX-7" value="" style="ellipse;whiteSpace=wrap;html=1;aspect=fixed;" parent="1" vertex="1">
          <mxGeometry x="17" y="320" width="20" height="20" as="geometry" />
        </mxCell>
        <mxCell id="XfbloPg4ATD7ratiGsCX-8" style="edgeStyle=orthogonalEdgeStyle;rounded=0;orthogonalLoop=1;jettySize=auto;html=1;exitX=0.5;exitY=0;exitDx=0;exitDy=0;entryX=0.5;entryY=1;entryDx=0;entryDy=0;endArrow=none;endFill=0;" parent="1" source="XfbloPg4ATD7ratiGsCX-9" target="XfbloPg4ATD7ratiGsCX-11" edge="1">
          <mxGeometry relative="1" as="geometry" />
        </mxCell>
        <mxCell id="XfbloPg4ATD7ratiGsCX-9" value="&lt;b&gt;&lt;font style=&quot;font-size: 13px;&quot;&gt;Nonlinearity&lt;/font&gt;&lt;/b&gt;" style="rounded=1;whiteSpace=wrap;html=1;fillColor=#d5e8d4;strokeColor=#82b366;" parent="1" vertex="1">
          <mxGeometry x="-50" y="259" width="119" height="50" as="geometry" />
        </mxCell>
        <mxCell id="XfbloPg4ATD7ratiGsCX-10" style="edgeStyle=orthogonalEdgeStyle;rounded=0;orthogonalLoop=1;jettySize=auto;html=1;exitX=0.5;exitY=0;exitDx=0;exitDy=0;entryX=0.5;entryY=1;entryDx=0;entryDy=0;endArrow=none;endFill=0;" parent="1" source="XfbloPg4ATD7ratiGsCX-11" target="XfbloPg4ATD7ratiGsCX-13" edge="1">
          <mxGeometry relative="1" as="geometry" />
        </mxCell>
        <mxCell id="XfbloPg4ATD7ratiGsCX-11" value="&lt;b&gt;&lt;font style=&quot;font-size: 13px;&quot;&gt;Feedforwaed&lt;br&gt;up-project&lt;br&gt;&lt;/font&gt;&lt;/b&gt;" style="rounded=1;whiteSpace=wrap;html=1;fillColor=#d5e8d4;strokeColor=#82b366;" parent="1" vertex="1">
          <mxGeometry x="-50" y="195" width="119" height="50" as="geometry" />
        </mxCell>
        <mxCell id="XfbloPg4ATD7ratiGsCX-12" value="" style="group" parent="1" vertex="1" connectable="0">
          <mxGeometry x="-70" y="160" width="160" height="20" as="geometry" />
        </mxCell>
        <mxCell id="XfbloPg4ATD7ratiGsCX-13" value="" style="rounded=0;whiteSpace=wrap;html=1;" parent="XfbloPg4ATD7ratiGsCX-12" vertex="1">
          <mxGeometry width="160" height="20" as="geometry" />
        </mxCell>
        <mxCell id="XfbloPg4ATD7ratiGsCX-14" value="" style="ellipse;whiteSpace=wrap;html=1;aspect=fixed;" parent="XfbloPg4ATD7ratiGsCX-12" vertex="1">
          <mxGeometry width="20" height="20" as="geometry" />
        </mxCell>
        <mxCell id="XfbloPg4ATD7ratiGsCX-15" value="" style="ellipse;whiteSpace=wrap;html=1;aspect=fixed;" parent="XfbloPg4ATD7ratiGsCX-12" vertex="1">
          <mxGeometry x="28" width="20" height="20" as="geometry" />
        </mxCell>
        <mxCell id="XfbloPg4ATD7ratiGsCX-16" value="" style="ellipse;whiteSpace=wrap;html=1;aspect=fixed;" parent="XfbloPg4ATD7ratiGsCX-12" vertex="1">
          <mxGeometry x="57" width="20" height="20" as="geometry" />
        </mxCell>
        <mxCell id="XfbloPg4ATD7ratiGsCX-17" value="" style="ellipse;whiteSpace=wrap;html=1;aspect=fixed;" parent="XfbloPg4ATD7ratiGsCX-12" vertex="1">
          <mxGeometry x="87" width="20" height="20" as="geometry" />
        </mxCell>
        <mxCell id="XfbloPg4ATD7ratiGsCX-18" value="" style="ellipse;whiteSpace=wrap;html=1;aspect=fixed;" parent="XfbloPg4ATD7ratiGsCX-12" vertex="1">
          <mxGeometry x="115" width="20" height="20" as="geometry" />
        </mxCell>
        <mxCell id="XfbloPg4ATD7ratiGsCX-19" value="" style="ellipse;whiteSpace=wrap;html=1;aspect=fixed;" parent="XfbloPg4ATD7ratiGsCX-12" vertex="1">
          <mxGeometry x="140" width="20" height="20" as="geometry" />
        </mxCell>
        <mxCell id="XfbloPg4ATD7ratiGsCX-20" value="" style="group" parent="1" vertex="1" connectable="0">
          <mxGeometry x="-70" y="417" width="160" height="20" as="geometry" />
        </mxCell>
        <mxCell id="XfbloPg4ATD7ratiGsCX-21" value="" style="rounded=0;whiteSpace=wrap;html=1;" parent="XfbloPg4ATD7ratiGsCX-20" vertex="1">
          <mxGeometry width="160" height="20" as="geometry" />
        </mxCell>
        <mxCell id="XfbloPg4ATD7ratiGsCX-22" value="" style="ellipse;whiteSpace=wrap;html=1;aspect=fixed;" parent="XfbloPg4ATD7ratiGsCX-20" vertex="1">
          <mxGeometry width="20" height="20" as="geometry" />
        </mxCell>
        <mxCell id="XfbloPg4ATD7ratiGsCX-23" value="" style="ellipse;whiteSpace=wrap;html=1;aspect=fixed;" parent="XfbloPg4ATD7ratiGsCX-20" vertex="1">
          <mxGeometry x="28" width="20" height="20" as="geometry" />
        </mxCell>
        <mxCell id="XfbloPg4ATD7ratiGsCX-24" value="" style="ellipse;whiteSpace=wrap;html=1;aspect=fixed;" parent="XfbloPg4ATD7ratiGsCX-20" vertex="1">
          <mxGeometry x="57" width="20" height="20" as="geometry" />
        </mxCell>
        <mxCell id="XfbloPg4ATD7ratiGsCX-25" value="" style="ellipse;whiteSpace=wrap;html=1;aspect=fixed;" parent="XfbloPg4ATD7ratiGsCX-20" vertex="1">
          <mxGeometry x="87" width="20" height="20" as="geometry" />
        </mxCell>
        <mxCell id="XfbloPg4ATD7ratiGsCX-26" value="" style="ellipse;whiteSpace=wrap;html=1;aspect=fixed;" parent="XfbloPg4ATD7ratiGsCX-20" vertex="1">
          <mxGeometry x="115" width="20" height="20" as="geometry" />
        </mxCell>
        <mxCell id="XfbloPg4ATD7ratiGsCX-27" value="" style="ellipse;whiteSpace=wrap;html=1;aspect=fixed;" parent="XfbloPg4ATD7ratiGsCX-20" vertex="1">
          <mxGeometry x="140" width="20" height="20" as="geometry" />
        </mxCell>
        <mxCell id="XfbloPg4ATD7ratiGsCX-28" value="" style="endArrow=classic;html=1;rounded=0;entryX=0.5;entryY=1;entryDx=0;entryDy=0;" parent="1" target="XfbloPg4ATD7ratiGsCX-21" edge="1">
          <mxGeometry width="50" height="50" relative="1" as="geometry">
            <mxPoint x="10" y="500" as="sourcePoint" />
            <mxPoint y="530" as="targetPoint" />
          </mxGeometry>
        </mxCell>
        <mxCell id="XfbloPg4ATD7ratiGsCX-29" style="edgeStyle=orthogonalEdgeStyle;rounded=0;orthogonalLoop=1;jettySize=auto;html=1;exitX=0.5;exitY=0;exitDx=0;exitDy=0;entryX=0.5;entryY=1;entryDx=0;entryDy=0;endArrow=none;endFill=0;" parent="1" source="XfbloPg4ATD7ratiGsCX-21" target="XfbloPg4ATD7ratiGsCX-3" edge="1">
          <mxGeometry relative="1" as="geometry" />
        </mxCell>
        <mxCell id="XfbloPg4ATD7ratiGsCX-30" style="edgeStyle=orthogonalEdgeStyle;rounded=0;orthogonalLoop=1;jettySize=auto;html=1;exitX=0.5;exitY=0;exitDx=0;exitDy=0;" parent="1" source="XfbloPg4ATD7ratiGsCX-31" edge="1">
          <mxGeometry relative="1" as="geometry">
            <mxPoint x="9.666666666666629" y="90" as="targetPoint" />
          </mxGeometry>
        </mxCell>
        <mxCell id="XfbloPg4ATD7ratiGsCX-31" value="&lt;font style=&quot;font-size: 14px;&quot;&gt;+&lt;/font&gt;" style="ellipse;whiteSpace=wrap;html=1;aspect=fixed;" parent="1" vertex="1">
          <mxGeometry x="-2" y="126.5" width="23.5" height="23.5" as="geometry" />
        </mxCell>
        <mxCell id="XfbloPg4ATD7ratiGsCX-32" value="" style="endArrow=classic;html=1;rounded=0;entryX=1;entryY=0.5;entryDx=0;entryDy=0;" parent="1" target="XfbloPg4ATD7ratiGsCX-31" edge="1">
          <mxGeometry width="50" height="50" relative="1" as="geometry">
            <mxPoint x="10" y="460" as="sourcePoint" />
            <mxPoint x="200" y="140" as="targetPoint" />
            <Array as="points">
              <mxPoint x="110" y="460" />
              <mxPoint x="110" y="138" />
            </Array>
          </mxGeometry>
        </mxCell>
        <mxCell id="XfbloPg4ATD7ratiGsCX-33" value="&lt;b&gt;Adapter&lt;br&gt;Layer&lt;/b&gt;" style="text;html=1;strokeColor=none;fillColor=none;align=center;verticalAlign=middle;whiteSpace=wrap;rounded=0;" parent="1" vertex="1">
          <mxGeometry x="-110" y="130" width="60" height="30" as="geometry" />
        </mxCell>
        <mxCell id="XfbloPg4ATD7ratiGsCX-34" style="edgeStyle=orthogonalEdgeStyle;rounded=0;orthogonalLoop=1;jettySize=auto;html=1;exitX=0.5;exitY=0;exitDx=0;exitDy=0;entryX=0.5;entryY=1;entryDx=0;entryDy=0;" parent="1" source="XfbloPg4ATD7ratiGsCX-13" target="XfbloPg4ATD7ratiGsCX-31" edge="1">
          <mxGeometry relative="1" as="geometry" />
        </mxCell>
        <mxCell id="XfbloPg4ATD7ratiGsCX-35" value="" style="rounded=1;whiteSpace=wrap;html=1;labelBorderColor=none;dashed=1;fillColor=#fff2cc;strokeColor=#d6b656;" parent="1" vertex="1">
          <mxGeometry x="220" y="137" width="220" height="300" as="geometry" />
        </mxCell>
        <mxCell id="XfbloPg4ATD7ratiGsCX-36" value="&lt;b&gt;&lt;font style=&quot;font-size: 16px;&quot;&gt;Input&lt;/font&gt;&lt;/b&gt;" style="text;html=1;align=center;verticalAlign=middle;whiteSpace=wrap;rounded=0;" parent="1" vertex="1">
          <mxGeometry x="160" y="450" width="60" height="30" as="geometry" />
        </mxCell>
        <mxCell id="ZDdrnm3DGxkRZ29ZL-x0-2" value="Transformer Encoder Layer" style="rounded=0;whiteSpace=wrap;html=1;fillColor=#dae8fc;strokeColor=#6c8ebf;" vertex="1" parent="1">
          <mxGeometry x="249" y="397" width="165" height="20" as="geometry" />
        </mxCell>
        <mxCell id="ZDdrnm3DGxkRZ29ZL-x0-4" value="Transformer Encoder Layer" style="rounded=0;whiteSpace=wrap;html=1;fillColor=#dae8fc;strokeColor=#6c8ebf;" vertex="1" parent="1">
          <mxGeometry x="247.5" y="352" width="165" height="20" as="geometry" />
        </mxCell>
        <mxCell id="ZDdrnm3DGxkRZ29ZL-x0-5" value="Transformer Encoder Layer" style="rounded=0;whiteSpace=wrap;html=1;fillColor=#dae8fc;strokeColor=#6c8ebf;" vertex="1" parent="1">
          <mxGeometry x="247.5" y="300" width="165" height="20" as="geometry" />
        </mxCell>
        <mxCell id="ZDdrnm3DGxkRZ29ZL-x0-7" value="" style="ellipse;whiteSpace=wrap;html=1;aspect=fixed;fillStyle=auto;fillColor=#281D00;" vertex="1" parent="1">
          <mxGeometry x="318.25" y="293" width="4" height="4" as="geometry" />
        </mxCell>
        <mxCell id="ZDdrnm3DGxkRZ29ZL-x0-8" value="" style="ellipse;whiteSpace=wrap;html=1;aspect=fixed;fillStyle=auto;fillColor=#281D00;" vertex="1" parent="1">
          <mxGeometry x="328.25" y="293" width="4" height="4" as="geometry" />
        </mxCell>
        <mxCell id="ZDdrnm3DGxkRZ29ZL-x0-9" value="" style="ellipse;whiteSpace=wrap;html=1;aspect=fixed;fillStyle=auto;fillColor=#281D00;" vertex="1" parent="1">
          <mxGeometry x="337.75" y="293" width="4" height="4" as="geometry" />
        </mxCell>
        <mxCell id="ZDdrnm3DGxkRZ29ZL-x0-10" value="Transformer Encoder Layer" style="rounded=0;whiteSpace=wrap;html=1;fillColor=#dae8fc;strokeColor=#6c8ebf;" vertex="1" parent="1">
          <mxGeometry x="247.5" y="239" width="165" height="20" as="geometry" />
        </mxCell>
        <mxCell id="ZDdrnm3DGxkRZ29ZL-x0-11" value="Transformer Encoder Layer" style="rounded=0;whiteSpace=wrap;html=1;fillColor=#dae8fc;strokeColor=#6c8ebf;" vertex="1" parent="1">
          <mxGeometry x="247.5" y="195" width="165" height="20" as="geometry" />
        </mxCell>
        <mxCell id="ZDdrnm3DGxkRZ29ZL-x0-12" value="Transformer Encoder Layer" style="rounded=0;whiteSpace=wrap;html=1;fillColor=#dae8fc;strokeColor=#6c8ebf;" vertex="1" parent="1">
          <mxGeometry x="247.5" y="150" width="165" height="20" as="geometry" />
        </mxCell>
        <mxCell id="ZDdrnm3DGxkRZ29ZL-x0-13" value="" style="group" vertex="1" connectable="0" parent="1">
          <mxGeometry x="240" y="451.75" width="180" height="26.5" as="geometry" />
        </mxCell>
        <mxCell id="XfbloPg4ATD7ratiGsCX-37" value="&lt;b&gt;&lt;font style=&quot;font-size: 14px;&quot;&gt;Prompt&lt;/font&gt;&lt;/b&gt;" style="rounded=0;whiteSpace=wrap;html=1;fillColor=#d5e8d4;strokeColor=#82b366;" parent="ZDdrnm3DGxkRZ29ZL-x0-13" vertex="1">
          <mxGeometry width="60" height="26.5" as="geometry" />
        </mxCell>
        <mxCell id="ZDdrnm3DGxkRZ29ZL-x0-1" value="&lt;b&gt;&lt;font style=&quot;font-size: 14px;&quot;&gt;Text tokens&lt;/font&gt;&lt;/b&gt;" style="rounded=0;whiteSpace=wrap;html=1;fillColor=#ffe6cc;strokeColor=#d79b00;" vertex="1" parent="ZDdrnm3DGxkRZ29ZL-x0-13">
          <mxGeometry x="60" width="120" height="26.5" as="geometry" />
        </mxCell>
        <mxCell id="ZDdrnm3DGxkRZ29ZL-x0-15" value="" style="endArrow=classic;html=1;rounded=0;entryX=0.131;entryY=1.011;entryDx=0;entryDy=0;entryPerimeter=0;exitX=0.17;exitY=0.001;exitDx=0;exitDy=0;exitPerimeter=0;" edge="1" parent="1" source="ZDdrnm3DGxkRZ29ZL-x0-1">
          <mxGeometry width="50" height="50" relative="1" as="geometry">
            <mxPoint x="320" y="451" as="sourcePoint" />
            <mxPoint x="321" y="417" as="targetPoint" />
          </mxGeometry>
        </mxCell>
        <mxCell id="ZDdrnm3DGxkRZ29ZL-x0-18" value="" style="endArrow=classic;html=1;rounded=0;entryX=0.131;entryY=1.011;entryDx=0;entryDy=0;entryPerimeter=0;exitX=0.444;exitY=0.039;exitDx=0;exitDy=0;exitPerimeter=0;" edge="1" parent="1" source="ZDdrnm3DGxkRZ29ZL-x0-2">
          <mxGeometry width="50" height="50" relative="1" as="geometry">
            <mxPoint x="321.25" y="407" as="sourcePoint" />
            <mxPoint x="322.25" y="372" as="targetPoint" />
          </mxGeometry>
        </mxCell>
        <mxCell id="ZDdrnm3DGxkRZ29ZL-x0-24" value="" style="endArrow=classic;html=1;rounded=0;entryX=0.454;entryY=0.996;entryDx=0;entryDy=0;entryPerimeter=0;exitX=0.444;exitY=0.039;exitDx=0;exitDy=0;exitPerimeter=0;" edge="1" parent="1" target="ZDdrnm3DGxkRZ29ZL-x0-5">
          <mxGeometry width="50" height="50" relative="1" as="geometry">
            <mxPoint x="322.09" y="352" as="sourcePoint" />
            <mxPoint x="322.34" y="326" as="targetPoint" />
          </mxGeometry>
        </mxCell>
        <mxCell id="ZDdrnm3DGxkRZ29ZL-x0-30" value="" style="endArrow=classic;html=1;rounded=0;entryX=0.131;entryY=1.011;entryDx=0;entryDy=0;entryPerimeter=0;exitX=0.444;exitY=0.039;exitDx=0;exitDy=0;exitPerimeter=0;" edge="1" parent="1">
          <mxGeometry width="50" height="50" relative="1" as="geometry">
            <mxPoint x="322.09000000000003" y="285" as="sourcePoint" />
            <mxPoint x="322.34000000000003" y="259" as="targetPoint" />
          </mxGeometry>
        </mxCell>
        <mxCell id="ZDdrnm3DGxkRZ29ZL-x0-33" value="" style="endArrow=classic;html=1;rounded=0;entryX=0.131;entryY=1.011;entryDx=0;entryDy=0;entryPerimeter=0;exitX=0.452;exitY=-0.033;exitDx=0;exitDy=0;exitPerimeter=0;" edge="1" parent="1" source="ZDdrnm3DGxkRZ29ZL-x0-10">
          <mxGeometry width="50" height="50" relative="1" as="geometry">
            <mxPoint x="322.09000000000003" y="241" as="sourcePoint" />
            <mxPoint x="322.34000000000003" y="215" as="targetPoint" />
          </mxGeometry>
        </mxCell>
        <mxCell id="ZDdrnm3DGxkRZ29ZL-x0-36" value="" style="endArrow=classic;html=1;rounded=0;entryX=0.131;entryY=1.011;entryDx=0;entryDy=0;entryPerimeter=0;exitX=0.451;exitY=-0.013;exitDx=0;exitDy=0;exitPerimeter=0;" edge="1" parent="1" source="ZDdrnm3DGxkRZ29ZL-x0-11">
          <mxGeometry width="50" height="50" relative="1" as="geometry">
            <mxPoint x="322.05" y="196" as="sourcePoint" />
            <mxPoint x="322.3" y="170" as="targetPoint" />
          </mxGeometry>
        </mxCell>
        <mxCell id="ZDdrnm3DGxkRZ29ZL-x0-39" value="" style="endArrow=classic;html=1;rounded=0;entryX=0.131;entryY=1.011;entryDx=0;entryDy=0;entryPerimeter=0;exitX=0.444;exitY=0.039;exitDx=0;exitDy=0;exitPerimeter=0;" edge="1" parent="1">
          <mxGeometry width="50" height="50" relative="1" as="geometry">
            <mxPoint x="322.09000000000003" y="150" as="sourcePoint" />
            <mxPoint x="322.34000000000003" y="124" as="targetPoint" />
          </mxGeometry>
        </mxCell>
      </root>
    </mxGraphModel>
  </diagram>
</mxfile>
